<svg width="1440" height="1058" viewBox="0 0 1440 1058" fill="none" xmlns="http://www.w3.org/2000/svg">
<g clip-path="url(#clip0_7215_90)">
<rect width="1440" height="1058" fill="#151411"/>
<g opacity="0.5">
<path d="M537.927 503.384L542.243 511.256L551.229 513.21L543.092 517.385L541.072 526.078L536.757 518.207L527.771 516.253L535.907 512.077L537.927 503.384Z" fill="#A296E0"/>
<path d="M748.593 308.505L748.626 317.415L755.639 323.191L746.429 323.222L740.458 330.006L740.426 321.097L733.413 315.321L742.623 315.289L748.593 308.505Z" fill="#CF96D4"/>
<path d="M630.255 598.911L630.288 607.821L637.301 613.597L628.091 613.628L622.12 620.413L622.088 611.503L615.075 605.727L624.285 605.695L630.255 598.911Z" fill="#FCEEE5"/>
<path d="M876.248 709.019L876.28 717.928L883.293 723.704L874.083 723.736L868.112 730.52L868.08 721.61L861.067 715.834L870.277 715.803L876.248 709.019Z" fill="#FCEEE5"/>
<path d="M813.248 35.8599L813.28 44.7698L820.293 50.5457L811.083 50.5772L805.112 57.3615L805.08 48.4515L798.067 42.6756L807.277 42.6441L813.248 35.8599Z" fill="#FCEEE5"/>
<path d="M1345.25 897.666L1345.28 906.576L1352.29 912.352L1343.08 912.384L1337.11 919.168L1337.08 910.258L1330.07 904.482L1339.28 904.451L1345.25 897.666Z" fill="#FCEEE5"/>
<path d="M920.852 585.285L924.36 590.518L930.75 591.347L925.342 594.741L924.485 600.923L920.976 595.69L914.586 594.861L919.995 591.467L920.852 585.285Z" fill="#FCEEE5"/>
<path d="M555.048 515.018L555.31 519.912L559.32 522.905L554.262 523.158L551.167 527.038L550.906 522.144L546.895 519.15L551.954 518.897L555.048 515.018Z" fill="#FCEEE5"/>
<ellipse cx="921.645" cy="541.741" rx="4.14184" ry="4.00692" fill="#FCEEE5"/>
<ellipse cx="530.34" cy="349.409" rx="4.14184" ry="4.00692" fill="#FCEEE5"/>
<ellipse cx="621.855" cy="399.782" rx="4.14184" ry="4.00692" fill="#FCEEE5"/>
<ellipse cx="736.248" cy="591.732" rx="4.14184" ry="4.00692" fill="#FCEEE5"/>
<ellipse cx="727.175" cy="598.601" rx="2.95846" ry="2.86209" fill="#A5A6E7"/>
<ellipse cx="727.175" cy="598.601" rx="2.95846" ry="2.86209" fill="#A5A6E7"/>
<ellipse cx="733.684" cy="601.845" rx="1.57784" ry="1.52645" fill="#FCEEE5"/>
<path d="M112.88 697.387L112.913 706.297L119.926 712.073L110.716 712.104L104.745 718.888L104.713 709.978L97.7 704.202L106.91 704.171L112.88 697.387Z" fill="#CF96D4"/>
<path d="M-5.4575 987.792L-5.42497 996.702L1.58777 1002.48L-7.62219 1002.51L-13.5926 1009.29L-13.6251 1000.38L-20.6379 994.608L-11.4279 994.577L-5.4575 987.792Z" fill="#FCEEE5"/>
<path d="M406.254 875.438L408.303 884.125L416.453 888.275L407.474 890.257L403.185 898.141L401.136 889.455L392.986 885.305L401.965 883.323L406.254 875.438Z" fill="#FCEEE5"/>
<path d="M285.139 974.166L288.647 979.398L295.037 980.228L289.629 983.622L288.772 989.804L285.263 984.571L278.873 983.742L284.282 980.348L285.139 974.166Z" fill="#FCEEE5"/>
<path d="M308.461 980.904L309.043 989.796L316.4 995.157L307.209 995.72L301.668 1002.84L301.085 993.945L293.728 988.585L302.92 988.021L308.461 980.904Z" fill="#FCEEE5"/>
<ellipse cx="309.206" cy="739.435" rx="4.14184" ry="4.00692" fill="#607CA3"/>
<ellipse cx="285.933" cy="930.622" rx="4.14184" ry="4.00692" fill="#FCEEE5"/>
<ellipse cx="213.548" cy="877.388" rx="2.76123" ry="2.67128" fill="#FCEEE5"/>
<ellipse cx="431.094" cy="792.861" rx="4.14184" ry="4.00692" fill="#FCEEE5"/>
<ellipse cx="691.142" cy="860.009" rx="4.14184" ry="4.00692" fill="#FCEEE5"/>
<ellipse cx="317.49" cy="734.093" rx="2.95846" ry="2.86209" fill="#607CA3"/>
<ellipse cx="100.536" cy="980.613" rx="4.14184" ry="4.00692" fill="#FCEEE5"/>
<ellipse cx="91.4633" cy="987.482" rx="2.95846" ry="2.86209" fill="#A5A6E7"/>
<ellipse cx="97.9724" cy="990.726" rx="1.57784" ry="1.52645" fill="#FCEEE5"/>
<path d="M519.305 889.16L523.621 897.031L532.607 898.985L524.47 903.16L522.45 911.853L518.135 903.982L509.149 902.028L517.285 897.853L519.305 889.16Z" fill="#A296E0"/>
<path d="M729.972 694.28L730.005 703.19L737.017 708.966L727.807 708.998L721.837 715.782L721.805 706.872L714.792 701.096L724.002 701.065L729.972 694.28Z" fill="#CF96D4"/>
<path d="M1096.25 506.995L1096.28 515.905L1103.29 521.681L1094.08 521.712L1088.11 528.497L1088.08 519.587L1081.07 513.811L1090.28 513.779L1096.25 506.995Z" fill="#CF96D4"/>
<path d="M1030.25 129.7L1030.28 138.61L1037.29 144.386L1028.08 144.418L1022.11 151.202L1022.08 142.292L1015.07 136.516L1024.28 136.484L1030.25 129.7Z" fill="#CF96D4"/>
<path d="M611.633 984.686L611.666 993.596L618.679 999.372L609.469 999.403L603.498 1006.19L603.466 997.278L596.453 991.502L605.663 991.47L611.633 984.686Z" fill="#FCEEE5"/>
<path d="M1023.35 872.332L1025.39 881.019L1033.54 885.169L1024.56 887.151L1020.28 895.035L1018.23 886.349L1010.08 882.199L1019.06 880.217L1023.35 872.332Z" fill="#FCEEE5"/>
<path d="M902.231 971.06L905.739 976.292L912.129 977.121L906.72 980.516L905.863 986.697L902.355 981.465L895.965 980.636L901.373 977.241L902.231 971.06Z" fill="#FCEEE5"/>
<path d="M925.551 977.798L926.133 986.691L933.49 992.051L924.298 992.615L918.757 999.732L918.175 990.84L910.818 985.479L920.01 984.916L925.551 977.798Z" fill="#FCEEE5"/>
<path d="M779.129 1028.75L779.711 1037.65L787.068 1043.01L777.877 1043.57L772.336 1050.69L771.753 1041.8L764.396 1036.44L773.588 1035.87L779.129 1028.75Z" fill="#FCEEE5"/>
<path d="M536.427 900.793L536.689 905.687L540.699 908.681L535.641 908.933L532.546 912.813L532.285 907.919L528.274 904.926L533.333 904.673L536.427 900.793Z" fill="#FCEEE5"/>
<path d="M446.093 1008.97L446.355 1013.86L450.365 1016.85L445.307 1017.11L442.212 1020.99L441.951 1016.09L437.94 1013.1L442.999 1012.85L446.093 1008.97Z" fill="#FCEEE5"/>
<ellipse cx="926.296" cy="736.329" rx="4.14184" ry="4.00692" fill="#607CA3"/>
<ellipse cx="903.024" cy="927.517" rx="4.14184" ry="4.00692" fill="#FCEEE5"/>
<ellipse cx="830.64" cy="874.282" rx="2.76123" ry="2.67128" fill="#FCEEE5"/>
<ellipse cx="1048.18" cy="789.754" rx="4.14184" ry="4.00692" fill="#FCEEE5"/>
<ellipse cx="511.718" cy="735.185" rx="4.14184" ry="4.00692" fill="#FCEEE5"/>
<ellipse cx="136.142" cy="91.0748" rx="4.14184" ry="4.00692" fill="#FCEEE5"/>
<ellipse cx="603.233" cy="785.557" rx="4.14184" ry="4.00692" fill="#FCEEE5"/>
<ellipse cx="934.581" cy="730.987" rx="2.95846" ry="2.86209" fill="#607CA3"/>
<ellipse cx="717.626" cy="977.507" rx="4.14184" ry="4.00692" fill="#FCEEE5"/>
<ellipse cx="708.554" cy="984.376" rx="2.95846" ry="2.86209" fill="#A5A6E7"/>
<ellipse cx="715.062" cy="987.62" rx="1.57784" ry="1.52645" fill="#FCEEE5"/>
<path d="M99.396 476.234L99.4285 485.144L106.441 490.92L97.2313 490.951L91.2609 497.735L91.2284 488.826L84.2156 483.05L93.4256 483.018L99.396 476.234Z" fill="#CF96D4"/>
<path d="M478.804 654.496L480.853 663.182L489.003 667.332L480.024 669.314L475.734 677.199L473.685 668.512L465.535 664.362L474.515 662.38L478.804 654.496Z" fill="#FCEEE5"/>
<path d="M271.654 753.013L275.163 758.246L281.553 759.075L276.144 762.469L275.287 768.651L271.778 763.418L265.389 762.589L270.797 759.195L271.654 753.013Z" fill="#FCEEE5"/>
<path d="M66.1289 628.242L66.7114 637.134L74.0681 642.494L64.8766 643.058L59.3356 650.175L58.7531 641.283L51.3963 635.922L60.5879 635.359L66.1289 628.242Z" fill="#FCEEE5"/>
<ellipse cx="295.721" cy="518.282" rx="4.14184" ry="4.00692" fill="#607CA3"/>
<ellipse cx="272.448" cy="709.47" rx="4.14184" ry="4.00692" fill="#FCEEE5"/>
<ellipse cx="200.064" cy="656.235" rx="2.76123" ry="2.67128" fill="#FCEEE5"/>
<ellipse cx="417.61" cy="571.708" rx="4.14184" ry="4.00692" fill="#FCEEE5"/>
<ellipse cx="304.004" cy="512.94" rx="2.95846" ry="2.86209" fill="#607CA3"/>
<ellipse cx="87.051" cy="759.461" rx="4.14184" ry="4.00692" fill="#FCEEE5"/>
<ellipse cx="77.978" cy="766.33" rx="2.95846" ry="2.86209" fill="#A5A6E7"/>
<ellipse cx="84.487" cy="769.573" rx="1.57784" ry="1.52645" fill="#FCEEE5"/>
<ellipse cx="152.027" cy="862.608" rx="2.76123" ry="2.67128" fill="#FCEEE5"/>
<path d="M286.831 989.33L287.414 998.222L294.77 1003.58L285.579 1004.15L280.038 1011.26L279.455 1002.37L272.098 997.011L281.29 996.447L286.831 989.33Z" fill="#FCEEE5"/>
<ellipse cx="431.451" cy="578.806" rx="4.14184" ry="4.00692" fill="#607CA3"/>
<ellipse cx="641.429" cy="624.775" rx="4.14184" ry="4.00692" fill="#FCEEE5"/>
<ellipse cx="651.804" cy="595.676" rx="2.95846" ry="2.86209" fill="#607CA3"/>
<path d="M1126.74 31.8162L1117.53 31.8542L1111.57 38.6428L1111.53 29.7329L1104.51 23.9619L1113.72 23.9239L1119.69 17.1354L1119.73 26.0453L1126.74 31.8162Z" fill="#FCEEE5"/>
<path d="M1243.18 430.033L1234.21 432.022L1229.92 439.91L1227.87 431.224L1219.71 427.08L1228.69 425.092L1232.98 417.204L1235.03 425.889L1243.18 430.033Z" fill="#FCEEE5"/>
<path d="M1141.04 312.937L1135.64 316.335L1134.78 322.517L1131.27 317.287L1124.88 316.463L1130.29 313.064L1131.14 306.882L1134.65 312.112L1141.04 312.937Z" fill="#FCEEE5"/>
<path d="M1134.1 335.503L1124.9 336.073L1119.37 343.194L1118.78 334.302L1111.42 328.947L1120.61 328.377L1126.15 321.256L1126.73 330.148L1134.1 335.503Z" fill="#FCEEE5"/>
<ellipse cx="4.00692" cy="4.14184" rx="4.00692" ry="4.14184" transform="matrix(0.000760429 1 -1 0.000711692 1387.83 332.036)" fill="#607CA3"/>
<ellipse cx="4.00692" cy="4.14184" rx="4.00692" ry="4.14184" transform="matrix(0.000760429 1 -1 0.000711692 1190.19 309.662)" fill="#FCEEE5"/>
<ellipse cx="2.67128" cy="2.76123" rx="2.67128" ry="2.76123" transform="matrix(0.000760429 1 -1 0.000711692 1243.79 240.934)" fill="#FCEEE5"/>
<ellipse cx="4.00692" cy="4.14184" rx="4.00692" ry="4.14184" transform="matrix(0.000760429 1 -1 0.000711692 1332.7 449.993)" fill="#FCEEE5"/>
<ellipse cx="4.00692" cy="4.14184" rx="4.00692" ry="4.14184" transform="matrix(0.000760429 1 -1 0.000711692 1336.71 19.5327)" fill="#FCEEE5"/>
<ellipse cx="2.86209" cy="2.95846" rx="2.86209" ry="2.95846" transform="matrix(0.000760429 1 -1 0.000711692 1392.18 341.192)" fill="#607CA3"/>
<ellipse cx="2.86209" cy="2.95846" rx="2.86209" ry="2.95846" transform="matrix(0.000760429 1 -1 0.000711692 1364.92 736.042)" fill="#607CA3"/>
<ellipse cx="4.00692" cy="4.14184" rx="4.00692" ry="4.14184" transform="matrix(0.000760429 1 -1 0.000711692 1138.38 130.342)" fill="#FCEEE5"/>
<ellipse cx="2.86209" cy="2.95846" rx="2.86209" ry="2.95846" transform="matrix(0.000760429 1 -1 0.000711692 1130.09 122.715)" fill="#A5A6E7"/>
<ellipse cx="1.52645" cy="1.57784" rx="1.52645" ry="1.57784" transform="matrix(0.000760429 1 -1 0.000711692 1125.36 130.351)" fill="#FCEEE5"/>
<path d="M1229.08 539.411L1220.95 543.592L1218.94 552.287L1214.62 544.418L1205.63 542.471L1213.76 538.29L1215.78 529.595L1220.1 537.463L1229.08 539.411Z" fill="#A296E0"/>
<path d="M1130.41 628.803L1121.2 628.841L1115.23 635.629L1115.19 626.719L1108.18 620.948L1117.39 620.91L1123.35 614.122L1123.39 623.032L1130.41 628.803Z" fill="#FCEEE5"/>
<path d="M1285.29 727.561L1276.08 727.599L1270.12 734.388L1270.08 725.478L1263.06 719.707L1272.27 719.669L1278.23 712.88L1278.27 721.79L1285.29 727.561Z" fill="#FCEEE5"/>
<path d="M1246.85 1027.02L1237.87 1029.01L1233.59 1036.9L1231.53 1028.21L1223.38 1024.07L1232.36 1022.08L1236.64 1014.19L1238.7 1022.88L1246.85 1027.02Z" fill="#FCEEE5"/>
<path d="M1144.71 909.922L1139.3 913.32L1138.45 919.503L1134.94 914.273L1128.55 913.448L1133.95 910.05L1134.81 903.868L1138.32 909.097L1144.71 909.922Z" fill="#FCEEE5"/>
<path d="M1137.76 932.489L1128.57 933.059L1123.03 940.18L1122.44 931.288L1115.08 925.933L1124.27 925.363L1129.81 918.242L1130.4 927.133L1137.76 932.489Z" fill="#FCEEE5"/>
<path d="M1217.07 555.984L1212.01 556.241L1208.92 560.123L1208.66 555.229L1204.64 552.238L1209.7 551.982L1212.79 548.1L1213.06 552.993L1217.07 555.984Z" fill="#FCEEE5"/>
<ellipse cx="4.00692" cy="4.14184" rx="4.00692" ry="4.14184" transform="matrix(0.000760429 1 -1 0.000711692 1391.5 929.022)" fill="#607CA3"/>
<ellipse cx="4.00692" cy="4.14184" rx="4.00692" ry="4.14184" transform="matrix(0.000760429 1 -1 0.000711692 1193.86 906.648)" fill="#FCEEE5"/>
<ellipse cx="2.67128" cy="2.76123" rx="2.67128" ry="2.76123" transform="matrix(0.000760429 1 -1 0.000711692 1247.45 837.919)" fill="#FCEEE5"/>
<ellipse cx="4.00692" cy="4.14184" rx="4.00692" ry="4.14184" transform="matrix(0.000760429 1 -1 0.000711692 1336.36 1046.98)" fill="#FCEEE5"/>
<ellipse cx="4.00692" cy="4.14184" rx="4.00692" ry="4.14184" transform="matrix(0.000760429 1 -1 0.000711692 1392.38 527.948)" fill="#FCEEE5"/>
<ellipse cx="4.00692" cy="4.14184" rx="4.00692" ry="4.14184" transform="matrix(0.000760429 1 -1 0.000711692 1340.38 616.519)" fill="#FCEEE5"/>
<ellipse cx="4.00692" cy="4.14184" rx="4.00692" ry="4.14184" transform="matrix(0.000760429 1 -1 0.000711692 1314.28 717.66)" fill="#FCEEE5"/>
<ellipse cx="2.86209" cy="2.95846" rx="2.86209" ry="2.95846" transform="matrix(0.000760429 1 -1 0.000711692 1395.84 938.178)" fill="#607CA3"/>
<ellipse cx="4.00692" cy="4.14184" rx="4.00692" ry="4.14184" transform="matrix(0.000760429 1 -1 0.000711692 1142.05 727.327)" fill="#FCEEE5"/>
<ellipse cx="2.86209" cy="2.95846" rx="2.86209" ry="2.95846" transform="matrix(0.000760429 1 -1 0.000711692 1133.76 719.701)" fill="#A5A6E7"/>
<ellipse cx="1.52645" cy="1.57784" rx="1.52645" ry="1.57784" transform="matrix(0.000760429 1 -1 0.000711692 1129.03 727.336)" fill="#FCEEE5"/>
<path d="M1355.33 18.6077L1346.12 18.6457L1340.16 25.4343L1340.12 16.5244L1333.1 10.7534L1342.31 10.7154L1348.28 3.92687L1348.32 12.8368L1355.33 18.6077Z" fill="#FCEEE5"/>
<path d="M1369.63 299.728L1364.23 303.126L1363.37 309.308L1359.86 304.078L1353.47 303.254L1358.88 299.855L1359.73 293.673L1363.24 298.903L1369.63 299.728Z" fill="#FCEEE5"/>
<path d="M1362.68 322.294L1353.49 322.864L1347.96 329.985L1347.37 321.094L1340.01 315.738L1349.2 315.168L1354.73 308.047L1355.32 316.939L1362.68 322.294Z" fill="#FCEEE5"/>
<ellipse cx="4.00692" cy="4.14184" rx="4.00692" ry="4.14184" transform="matrix(0.000760429 1 -1 0.000711692 1418.78 296.454)" fill="#FCEEE5"/>
<ellipse cx="4.00692" cy="4.14184" rx="4.00692" ry="4.14184" transform="matrix(0.000760429 1 -1 0.000711692 1366.97 117.133)" fill="#FCEEE5"/>
<ellipse cx="2.86209" cy="2.95846" rx="2.86209" ry="2.95846" transform="matrix(0.000760429 1 -1 0.000711692 1358.68 109.507)" fill="#A5A6E7"/>
<ellipse cx="1.52645" cy="1.57784" rx="1.52645" ry="1.57784" transform="matrix(0.000760429 1 -1 0.000711692 1353.95 117.143)" fill="#FCEEE5"/>
<ellipse cx="2.67128" cy="2.76123" rx="2.67128" ry="2.76123" transform="matrix(0.000760429 1 -1 0.000711692 1259.02 181.405)" fill="#FCEEE5"/>
<path d="M1125.37 314.585L1116.18 315.155L1110.64 322.276L1110.05 313.384L1102.69 308.029L1111.88 307.459L1117.42 300.338L1118.01 309.23L1125.37 314.585Z" fill="#FCEEE5"/>
<path d="M508.926 33.2164L513.242 41.0876L522.228 43.0418L514.091 47.2169L512.071 55.91L507.756 48.0388L498.77 46.0846L506.906 41.9094L508.926 33.2164Z" fill="#A296E0"/>
<path d="M1370.25 812.533L1370.28 821.443L1377.29 827.219L1368.08 827.25L1362.11 834.035L1362.08 825.125L1355.07 819.349L1364.28 819.317L1370.25 812.533Z" fill="#FCEEE5"/>
<path d="M891.852 115.117L895.36 120.35L901.75 121.179L896.342 124.573L895.485 130.755L891.976 125.522L885.586 124.693L890.995 121.299L891.852 115.117Z" fill="#FCEEE5"/>
<path d="M526.048 44.8496L526.31 49.7435L530.32 52.7372L525.262 52.9901L522.167 56.87L521.906 51.976L517.895 48.9824L522.954 48.7294L526.048 44.8496Z" fill="#FCEEE5"/>
<ellipse cx="892.645" cy="71.5733" rx="4.14184" ry="4.00692" fill="#FCEEE5"/>
<ellipse cx="707.248" cy="121.565" rx="4.14184" ry="4.00692" fill="#FCEEE5"/>
<ellipse cx="698.175" cy="128.433" rx="2.95846" ry="2.86209" fill="#A5A6E7"/>
<ellipse cx="698.175" cy="128.433" rx="2.95846" ry="2.86209" fill="#A5A6E7"/>
<ellipse cx="704.684" cy="131.677" rx="1.57784" ry="1.52645" fill="#FCEEE5"/>
<path d="M83.8804 227.219L83.9129 236.129L90.9257 241.905L81.7157 241.936L75.7453 248.72L75.7128 239.81L68.7 234.034L77.91 234.003L83.8804 227.219Z" fill="#CF96D4"/>
<path d="M377.254 405.271L379.303 413.957L387.453 418.107L378.474 420.089L374.185 427.974L372.136 419.287L363.986 415.137L372.965 413.155L377.254 405.271Z" fill="#FCEEE5"/>
<path d="M256.139 503.998L259.647 509.23L266.037 510.06L260.629 513.454L259.772 519.636L256.263 514.403L249.873 513.574L255.282 510.18L256.139 503.998Z" fill="#FCEEE5"/>
<path d="M309.129 535.369L309.711 544.261L317.068 549.622L307.877 550.185L302.336 557.302L301.753 548.41L294.396 543.05L303.588 542.486L309.129 535.369Z" fill="#FCEEE5"/>
<ellipse cx="280.205" cy="269.267" rx="4.14184" ry="4.00692" fill="#607CA3"/>
<ellipse cx="256.932" cy="460.454" rx="4.14184" ry="4.00692" fill="#FCEEE5"/>
<ellipse cx="184.548" cy="407.22" rx="2.76123" ry="2.67128" fill="#FCEEE5"/>
<ellipse cx="402.094" cy="322.693" rx="4.14184" ry="4.00692" fill="#FCEEE5"/>
<ellipse cx="288.49" cy="263.925" rx="2.95846" ry="2.86209" fill="#607CA3"/>
<ellipse cx="71.5354" cy="510.445" rx="4.14184" ry="4.00692" fill="#FCEEE5"/>
<ellipse cx="62.4624" cy="517.314" rx="2.95846" ry="2.86209" fill="#A5A6E7"/>
<ellipse cx="68.9714" cy="520.559" rx="1.57784" ry="1.52645" fill="#FCEEE5"/>
<path d="M490.305 418.992L494.621 426.863L503.607 428.817L495.47 432.992L493.45 441.685L489.135 433.814L480.149 431.86L488.285 427.685L490.305 418.992Z" fill="#A296E0"/>
<path d="M700.971 224.112L701.004 233.022L708.016 238.798L698.807 238.829L692.836 245.613L692.804 236.703L685.791 230.928L695.001 230.896L700.971 224.112Z" fill="#CF96D4"/>
<path d="M582.632 514.518L582.665 523.428L589.678 529.204L580.468 529.235L574.497 536.02L574.465 527.11L567.452 521.334L576.662 521.302L582.632 514.518Z" fill="#FCEEE5"/>
<path d="M994.345 402.164L996.394 410.85L1004.54 415L995.565 416.982L991.275 424.867L989.227 416.18L981.076 412.03L990.056 410.048L994.345 402.164Z" fill="#FCEEE5"/>
<path d="M873.23 500.892L876.738 506.125L883.128 506.954L877.719 510.348L876.862 516.53L873.354 511.297L866.964 510.468L872.372 507.074L873.23 500.892Z" fill="#FCEEE5"/>
<path d="M896.551 507.63L897.133 516.522L904.49 521.883L895.298 522.446L889.757 529.563L889.175 520.671L881.818 515.311L891.01 514.747L896.551 507.63Z" fill="#FCEEE5"/>
<path d="M755.093 466.072L755.355 470.966L759.365 473.96L754.307 474.213L751.212 478.093L750.951 473.199L746.94 470.205L751.999 469.952L755.093 466.072Z" fill="#FCEEE5"/>
<ellipse cx="897.296" cy="266.162" rx="4.14184" ry="4.00692" fill="#607CA3"/>
<ellipse cx="874.023" cy="457.349" rx="4.14184" ry="4.00692" fill="#FCEEE5"/>
<ellipse cx="801.639" cy="404.114" rx="2.76123" ry="2.67128" fill="#FCEEE5"/>
<ellipse cx="1019.18" cy="319.587" rx="4.14184" ry="4.00692" fill="#FCEEE5"/>
<ellipse cx="482.718" cy="265.016" rx="4.14184" ry="4.00692" fill="#FCEEE5"/>
<ellipse cx="574.233" cy="315.39" rx="4.14184" ry="4.00692" fill="#FCEEE5"/>
<ellipse cx="905.58" cy="260.819" rx="2.95846" ry="2.86209" fill="#607CA3"/>
<ellipse cx="688.626" cy="507.339" rx="4.14184" ry="4.00692" fill="#FCEEE5"/>
<ellipse cx="679.554" cy="514.209" rx="2.95846" ry="2.86209" fill="#A5A6E7"/>
<ellipse cx="686.062" cy="517.452" rx="1.57784" ry="1.52645" fill="#FCEEE5"/>
<path d="M70.396 6.06542L70.4285 14.9754L77.4413 20.7513L68.2313 20.7827L62.2609 27.567L62.2284 18.6571L55.2156 12.8812L64.4256 12.8497L70.396 6.06542Z" fill="#CF96D4"/>
<path d="M363.769 184.118L365.818 192.804L373.968 196.954L364.989 198.936L360.699 206.821L358.65 198.134L350.5 193.984L359.479 192.002L363.769 184.118Z" fill="#FCEEE5"/>
<path d="M119.804 88.5528L121.853 97.2395L130.003 101.389L121.024 103.371L116.734 111.256L114.685 102.569L106.535 98.4195L115.515 96.4374L119.804 88.5528Z" fill="#FCEEE5"/>
<path d="M242.654 282.846L246.163 288.078L252.553 288.907L247.144 292.302L246.287 298.483L242.778 293.251L236.389 292.422L241.797 289.027L242.654 282.846Z" fill="#FCEEE5"/>
<ellipse cx="266.721" cy="48.1148" rx="4.14184" ry="4.00692" fill="#607CA3"/>
<ellipse cx="243.448" cy="239.302" rx="4.14184" ry="4.00692" fill="#FCEEE5"/>
<ellipse cx="171.064" cy="186.067" rx="2.76123" ry="2.67128" fill="#FCEEE5"/>
<ellipse cx="388.609" cy="101.54" rx="4.14184" ry="4.00692" fill="#FCEEE5"/>
<ellipse cx="275.004" cy="42.7718" rx="2.95846" ry="2.86209" fill="#607CA3"/>
<ellipse cx="58.051" cy="289.293" rx="4.14184" ry="4.00692" fill="#FCEEE5"/>
<ellipse cx="48.978" cy="296.162" rx="2.95846" ry="2.86209" fill="#A5A6E7"/>
<ellipse cx="55.487" cy="299.405" rx="1.57784" ry="1.52645" fill="#FCEEE5"/>
<ellipse cx="123.026" cy="392.44" rx="2.76123" ry="2.67128" fill="#FCEEE5"/>
<ellipse cx="402.45" cy="108.638" rx="4.14184" ry="4.00692" fill="#607CA3"/>
<ellipse cx="612.429" cy="154.607" rx="4.14184" ry="4.00692" fill="#FCEEE5"/>
<ellipse cx="612.429" cy="154.607" rx="4.14184" ry="4.00692" fill="#FCEEE5"/>
<ellipse cx="622.804" cy="125.509" rx="2.95846" ry="2.86209" fill="#607CA3"/>
</g>
</g>
<defs>
<clipPath id="clip0_7215_90">
<rect width="1440" height="1058" fill="white"/>
</clipPath>
</defs>
</svg>
