<svg width="1440" height="687" viewBox="0 0 1440 687" fill="none" xmlns="http://www.w3.org/2000/svg">
<g clip-path="url(#clip0_2895_1404)">
<path d="M226.065 579.562C98.5698 603.802 33.3543 458.832 97.2999 399.62" stroke="#FFB8B8" stroke-width="6" stroke-linecap="round" stroke-dasharray="12 12"/>
<path d="M104.258 393.881C226.798 322.083 263.856 482.594 226.701 560.091" stroke="#FFB8B8" stroke-width="6" stroke-linecap="round" stroke-dasharray="12 12"/>
<path d="M230.233 567.252C254.119 564.734 303.605 541.86 310.587 459.011" stroke="#FFB8B8" stroke-width="6" stroke-linecap="round" stroke-dasharray="12 12"/>
<path d="M219.873 571.14C160.736 677.933 85.0998 693.764 0.53883 680.08" stroke="#FFB8B8" stroke-width="6" stroke-linecap="round" stroke-dasharray="12 12"/>
<path d="M311.63 452.237C316.455 398.908 315.841 278.715 422.466 285.257C534.138 292.108 623.156 426.448 688.806 344.646" stroke="#FFB8B8" stroke-width="6" stroke-linecap="round" stroke-dasharray="12 12"/>
<path d="M961.787 240.505C962.778 240.448 963.273 240.419 963.573 240.661C963.701 240.763 963.802 240.896 963.866 241.047C964.017 241.401 963.854 241.875 963.528 242.823L948.077 287.732C947.919 288.193 947.839 288.424 947.681 288.585C947.612 288.656 947.532 288.716 947.445 288.763C947.247 288.871 947.003 288.884 946.516 288.911L898.587 291.487C898.576 291.488 898.57 291.488 898.565 291.488C898.563 291.489 898.561 291.489 898.558 291.489C898.553 291.489 898.563 291.488 898.559 291.489C898.002 291.534 809.767 298.548 831.007 189.705C848.83 98.3762 912.7 93.0117 961.308 90.4124C1008.07 87.9118 1009.4 87.4632 1009.43 87.4328L993.317 133.002C993.156 133.457 993.075 133.685 992.917 133.844C992.848 133.914 992.769 133.973 992.682 134.02C992.485 134.127 992.244 134.14 991.761 134.166L943.831 136.742C943.816 136.743 943.809 136.743 943.801 136.744C943.797 136.744 943.793 136.745 943.79 136.745C943.782 136.745 943.79 136.745 943.787 136.745C943.035 136.819 894.912 141.717 884.674 188.546C877.529 221.232 886.518 244.334 915.245 242.996C930.739 242.275 954.059 240.949 961.787 240.505Z" fill="white"/>
<path d="M379.688 120.187C347.504 123.657 327.844 147.14 318.472 179.651C309.099 212.162 326.909 242.209 362.412 240.974C374.921 240.392 389.218 243.066 387.914 256.457C386.131 274.754 344.118 274.628 343.011 274.622C343.008 274.622 343.006 274.622 342.996 274.622C342.991 274.622 342.986 274.622 342.981 274.622C342.971 274.623 342.961 274.623 342.941 274.624C342.117 274.666 330.621 275.253 312.752 276.213C312.296 276.237 312.068 276.25 311.879 276.346C311.797 276.388 311.72 276.442 311.652 276.505C311.497 276.65 311.408 276.858 311.231 277.275L291.859 322.782C291.439 323.769 291.229 324.262 291.37 324.637C291.43 324.796 291.529 324.937 291.659 325.047C291.964 325.307 292.499 325.276 293.57 325.215L344.61 322.291C376.794 318.822 420.272 305.601 432.49 263.221C451.14 198.528 394.422 202.063 393.224 202.145C393.223 202.145 393.227 202.145 393.216 202.146C393.21 202.146 393.206 202.147 393.201 202.147C393.189 202.149 393.181 202.15 393.165 202.152C392.006 202.301 365.95 205.41 371.506 181.55C375.218 165.608 394.886 166.712 396.535 166.833C396.586 166.837 396.612 166.839 396.635 166.839C396.647 166.839 396.654 166.84 396.666 166.84C396.689 166.839 396.715 166.838 396.768 166.835L412.868 166.028C412.868 166.028 412.869 166.028 412.869 166.028C412.869 166.028 412.869 166.028 412.869 166.028C412.869 166.028 412.869 166.028 412.869 166.028C412.883 166.027 424.573 165.432 443.128 164.436C443.575 164.412 443.798 164.4 443.985 164.306C444.067 164.265 444.142 164.213 444.21 164.151C444.364 164.011 444.455 163.808 444.636 163.403L464.959 117.996C465.404 117.001 465.627 116.504 465.49 116.124C465.431 115.963 465.332 115.819 465.203 115.707C464.897 115.443 464.353 115.473 463.264 115.534L408.2 118.6L379.688 120.187Z" fill="white"/>
<path d="M1041.38 87.6348L971.419 289.92L1106.28 282.41L1122.47 237.672C1122.81 236.724 1122.98 236.25 1122.83 235.893C1122.77 235.741 1122.67 235.606 1122.55 235.501C1122.25 235.256 1121.74 235.28 1120.74 235.329L1047.63 238.878C1046.62 238.927 1046.12 238.951 1045.82 238.705C1045.69 238.6 1045.59 238.465 1045.53 238.312C1045.38 237.954 1045.56 237.479 1045.9 236.529L1055.22 211.014C1055.39 210.548 1055.48 210.315 1055.64 210.156C1055.72 210.086 1055.8 210.027 1055.89 209.982C1056.09 209.878 1056.34 209.874 1056.84 209.865L1095.05 209.187C1095.55 209.178 1095.8 209.173 1096 209.068C1096.1 209.022 1096.18 208.962 1096.25 208.891C1096.42 208.729 1096.5 208.493 1096.67 208.02L1111.93 164.815C1112.25 163.893 1112.42 163.432 1112.27 163.08C1112.21 162.93 1112.12 162.797 1111.99 162.692C1111.7 162.447 1111.21 162.459 1110.24 162.483L1072.68 163.393C1071.66 163.418 1071.16 163.43 1070.87 163.176C1070.74 163.068 1070.65 162.931 1070.59 162.776C1070.45 162.414 1070.63 161.944 1071.01 161.002L1080.68 136.45C1080.85 136.022 1080.94 135.808 1081.09 135.658C1081.16 135.592 1081.23 135.536 1081.32 135.492C1081.51 135.391 1081.74 135.376 1082.2 135.345L1156.38 130.457C1156.84 130.427 1157.07 130.411 1157.26 130.31C1157.34 130.265 1157.42 130.209 1157.49 130.142C1157.64 129.991 1157.73 129.775 1157.89 129.344L1176.93 80.2858L1041.38 87.6348Z" fill="white"/>
<path fill-rule="evenodd" clip-rule="evenodd" d="M438.732 313.603C438.396 314.552 438.228 315.026 438.377 315.382C438.441 315.534 438.541 315.668 438.668 315.772C438.968 316.016 439.471 315.988 440.476 315.934L485.834 313.496C486.312 313.47 486.551 313.457 486.747 313.353C486.833 313.307 486.912 313.248 486.981 313.179C487.138 313.023 487.22 312.798 487.384 312.348L513.88 239.738C514.043 239.292 514.124 239.068 514.28 238.912C514.349 238.844 514.426 238.786 514.511 238.739C514.705 238.634 514.952 238.619 515.444 238.588C592.747 233.751 602.152 218.452 614.5 189.674L625.939 152.315C637.971 119.543 608.838 109.26 558.416 111.792C526.911 113.374 515.595 114.01 511.538 114.265C510.333 114.341 509.731 114.378 509.536 114.485C509.402 114.559 509.411 114.552 509.304 114.66C509.148 114.819 508.941 115.403 508.527 116.57L438.732 313.603ZM570.146 154.155C570.143 154.155 570.141 154.155 570.133 154.156C570.13 154.156 570.125 154.156 570.122 154.156C570.114 154.157 570.108 154.157 570.096 154.158L545.576 155.897C545.107 155.93 544.872 155.947 544.68 156.052C544.596 156.099 544.519 156.157 544.452 156.225C544.297 156.38 544.217 156.601 544.056 157.043L530.767 193.461C530.414 194.426 530.238 194.909 530.388 195.27C530.452 195.424 530.554 195.559 530.683 195.663C530.988 195.909 531.5 195.875 532.526 195.807L558.383 194.094C558.404 194.093 558.415 194.092 558.43 194.09C558.435 194.09 558.447 194.089 558.452 194.088C558.467 194.086 558.474 194.085 558.487 194.083C559.48 193.932 574.879 191.204 581.909 166.634C585.563 153.863 570.771 154.138 570.146 154.155Z" fill="white"/>
<path d="M961.787 240.505C962.778 240.448 963.273 240.419 963.573 240.661C963.701 240.763 963.802 240.896 963.866 241.047C964.017 241.401 963.854 241.875 963.528 242.823L948.077 287.732C947.919 288.193 947.839 288.424 947.681 288.585C947.612 288.656 947.532 288.716 947.445 288.763C947.247 288.871 947.003 288.884 946.516 288.911L898.587 291.487C898.576 291.488 898.57 291.488 898.565 291.488C898.563 291.489 898.561 291.489 898.558 291.489C898.553 291.489 898.563 291.488 898.559 291.489C898.002 291.534 809.767 298.548 831.007 189.705C848.83 98.3762 912.7 93.0117 961.308 90.4124C1008.07 87.9118 1009.4 87.4632 1009.43 87.4328L993.317 133.002C993.156 133.457 993.075 133.685 992.917 133.844C992.848 133.914 992.769 133.973 992.682 134.02C992.485 134.127 992.244 134.14 991.761 134.166L943.831 136.742C943.816 136.743 943.809 136.743 943.801 136.744C943.797 136.744 943.793 136.745 943.79 136.745C943.782 136.745 943.79 136.745 943.787 136.745C943.035 136.819 894.912 141.717 884.674 188.546C877.529 221.232 886.518 244.334 915.245 242.996C930.739 242.275 954.059 240.949 961.787 240.505Z" fill="white"/>
<path d="M379.688 120.187C347.504 123.657 327.844 147.14 318.472 179.651C309.099 212.162 326.909 242.209 362.412 240.974C374.921 240.392 389.218 243.066 387.914 256.457C386.131 274.754 344.118 274.628 343.011 274.622C343.008 274.622 343.006 274.622 342.996 274.622C342.991 274.622 342.986 274.622 342.981 274.622C342.971 274.623 342.961 274.623 342.941 274.624C342.117 274.666 330.621 275.253 312.752 276.213C312.296 276.237 312.068 276.25 311.879 276.346C311.797 276.388 311.72 276.442 311.652 276.505C311.497 276.65 311.408 276.858 311.231 277.275L291.859 322.782C291.439 323.769 291.229 324.262 291.37 324.637C291.43 324.796 291.529 324.937 291.659 325.047C291.964 325.307 292.499 325.276 293.57 325.215L344.61 322.291C376.794 318.822 420.272 305.601 432.49 263.221C451.14 198.528 394.422 202.063 393.224 202.145C393.223 202.145 393.227 202.145 393.216 202.146C393.21 202.146 393.206 202.147 393.201 202.147C393.189 202.149 393.181 202.15 393.165 202.152C392.006 202.301 365.95 205.41 371.506 181.55C375.218 165.608 394.886 166.712 396.535 166.833C396.586 166.837 396.612 166.839 396.635 166.839C396.647 166.839 396.654 166.84 396.666 166.84C396.689 166.839 396.715 166.838 396.768 166.835L412.868 166.028C412.868 166.028 412.869 166.028 412.869 166.028C412.869 166.028 412.869 166.028 412.869 166.028C412.869 166.028 412.869 166.028 412.869 166.028C412.883 166.027 424.573 165.432 443.128 164.436C443.575 164.412 443.798 164.4 443.985 164.306C444.067 164.265 444.142 164.213 444.21 164.151C444.364 164.011 444.455 163.808 444.636 163.403L464.959 117.996C465.404 117.001 465.627 116.504 465.49 116.124C465.431 115.963 465.332 115.819 465.203 115.707C464.897 115.443 464.353 115.473 463.264 115.534L408.2 118.6L379.688 120.187Z" fill="white"/>
<path d="M1041.38 87.6348L971.419 289.92L1106.28 282.41L1122.47 237.672C1122.81 236.724 1122.98 236.25 1122.83 235.893C1122.77 235.741 1122.67 235.606 1122.55 235.501C1122.25 235.256 1121.74 235.28 1120.74 235.329L1047.63 238.878C1046.62 238.927 1046.12 238.951 1045.82 238.705C1045.69 238.6 1045.59 238.465 1045.53 238.312C1045.38 237.954 1045.56 237.479 1045.9 236.529L1055.22 211.014C1055.39 210.548 1055.48 210.315 1055.64 210.156C1055.72 210.086 1055.8 210.027 1055.89 209.982C1056.09 209.878 1056.34 209.874 1056.84 209.865L1095.05 209.187C1095.55 209.178 1095.8 209.173 1096 209.068C1096.1 209.022 1096.18 208.962 1096.25 208.891C1096.42 208.729 1096.5 208.493 1096.67 208.02L1111.93 164.815C1112.25 163.893 1112.42 163.432 1112.27 163.08C1112.21 162.93 1112.12 162.797 1111.99 162.692C1111.7 162.447 1111.21 162.459 1110.24 162.483L1072.68 163.393C1071.66 163.418 1071.16 163.43 1070.87 163.176C1070.74 163.068 1070.65 162.931 1070.59 162.776C1070.45 162.414 1070.63 161.944 1071.01 161.002L1080.68 136.45C1080.85 136.022 1080.94 135.808 1081.09 135.658C1081.16 135.592 1081.23 135.536 1081.32 135.492C1081.51 135.391 1081.74 135.376 1082.2 135.345L1156.38 130.457C1156.84 130.427 1157.07 130.411 1157.26 130.31C1157.34 130.265 1157.42 130.209 1157.49 130.142C1157.64 129.991 1157.73 129.775 1157.89 129.344L1176.93 80.2858L1041.38 87.6348Z" fill="white"/>
<path fill-rule="evenodd" clip-rule="evenodd" d="M438.732 313.603C438.396 314.552 438.228 315.026 438.377 315.382C438.441 315.534 438.541 315.668 438.668 315.772C438.968 316.016 439.471 315.988 440.476 315.934L485.834 313.496C486.312 313.47 486.551 313.457 486.747 313.353C486.833 313.307 486.912 313.248 486.981 313.179C487.138 313.023 487.22 312.798 487.384 312.348L513.88 239.738C514.043 239.292 514.124 239.068 514.28 238.912C514.349 238.844 514.426 238.786 514.511 238.739C514.705 238.634 514.952 238.619 515.444 238.588C592.747 233.751 602.152 218.452 614.5 189.674L625.939 152.315C637.971 119.543 608.838 109.26 558.416 111.792C526.911 113.374 515.595 114.01 511.538 114.265C510.333 114.341 509.731 114.378 509.536 114.485C509.402 114.559 509.411 114.552 509.304 114.66C509.148 114.819 508.941 115.403 508.527 116.57L438.732 313.603ZM570.146 154.155C570.143 154.155 570.141 154.155 570.133 154.156C570.13 154.156 570.125 154.156 570.122 154.156C570.114 154.157 570.108 154.157 570.096 154.158L545.576 155.897C545.107 155.93 544.872 155.947 544.68 156.052C544.596 156.099 544.519 156.157 544.452 156.225C544.297 156.38 544.217 156.601 544.056 157.043L530.767 193.461C530.414 194.426 530.238 194.909 530.388 195.27C530.452 195.424 530.554 195.559 530.683 195.663C530.988 195.909 531.5 195.875 532.526 195.807L558.383 194.094C558.404 194.093 558.415 194.092 558.43 194.09C558.435 194.09 558.447 194.089 558.452 194.088C558.467 194.086 558.474 194.085 558.487 194.083C559.48 193.932 574.879 191.204 581.909 166.634C585.563 153.863 570.771 154.138 570.146 154.155Z" fill="white"/>
<path d="M707.272 252.229C677.312 241.819 654.399 254.682 652.969 289.135C687.601 293.486 703.296 281.464 707.272 252.229Z" fill="#FFFCFC"/>
<path d="M725.431 256.371C756.942 259.98 772.011 281.507 758.361 313.172C725.268 302.077 716.337 284.439 725.431 256.371Z" fill="#FFFCFC"/>
<path d="M719.413 245.984C747.484 278.672 735.454 325.578 696.724 345.463C666.964 310.443 677.412 262.69 719.413 245.984Z" fill="#FFFCFC"/>
<path d="M775.356 176.122L697.08 158.269L676.033 250.545L754.31 268.398L775.356 176.122Z" fill="#120E46" stroke="white" stroke-width="7"/>
<path d="M697.08 158.269C714.528 81.767 793.015 98.6975 775.356 176.122L697.08 158.269Z" fill="#120E46" stroke="white" stroke-width="7"/>
<path d="M641.095 204.19L689.485 191.567L676.527 248.383L627.867 262.19L641.095 204.19Z" fill="#120E46" stroke="white" stroke-width="7"/>
<path d="M805.893 241.777L767.762 209.42L754.803 266.236L792.664 299.776L805.893 241.777Z" fill="#120E46" stroke="white" stroke-width="7"/>
</g>
<defs>
<clipPath id="clip0_2895_1404">
<rect width="1440" height="687" fill="white"/>
</clipPath>
</defs>
</svg>
