<svg width="1049" height="371" viewBox="0 0 1049 371" fill="none" xmlns="http://www.w3.org/2000/svg">
<g filter="url(#filter0_f_7204_13688)">
<path d="M219.359 279.914C212.81 289.801 204.645 298.201 194.863 305.114C185.24 311.805 174.887 317.055 163.804 320.864C152.944 324.832 141.733 327.296 130.173 328.255C118.835 329.373 108.066 329.223 97.8659 327.805C87.666 326.388 78.4311 323.735 70.1613 319.846C62.0497 315.735 55.7268 310.64 51.1927 304.562C46.8486 298.453 44.7842 291.376 44.9996 283.33C45.1831 275.095 48.5332 265.939 55.05 255.862C57.201 252.376 61.3167 250.124 67.3972 249.105C73.6359 247.865 80.366 247.226 87.5874 247.189C94.8089 247.152 101.904 247.526 108.873 248.312C115.842 249.099 121.401 249.633 125.55 249.915C132.297 250.543 137.633 249.747 141.559 247.526C145.643 245.084 147.747 242.485 147.872 239.73C147.996 236.974 146.047 234.664 142.023 232.798C137.999 230.932 131.521 230.748 122.591 232.243C106.439 234.948 92.5977 234.532 81.0658 230.993C69.502 227.265 60.9612 221.175 55.4434 212.722C49.9255 204.27 47.6843 193.804 48.7196 181.323C49.9132 168.622 55.0015 154.681 63.9847 139.503C69.1723 130.82 76.2927 123.181 85.3461 116.586C94.3676 109.801 104.135 104.551 114.647 100.837C125.318 96.9009 136.18 94.691 147.234 94.2071C158.446 93.5014 168.82 94.7918 178.356 98.0783C185.611 100.575 191.284 104.704 195.374 110.465C199.623 116.004 202.082 121.941 202.753 128.275C203.613 134.578 202.604 140.802 199.727 146.949C196.818 152.906 191.928 157.534 185.057 160.834C182.524 162.039 179.912 162.77 177.22 163.025C174.496 163.091 171.661 163.077 168.715 162.985C165.928 162.67 163.14 162.356 160.353 162.041C157.565 161.727 154.794 161.507 152.038 161.382C144.975 161.198 139.053 161.995 134.271 163.772C129.458 165.36 126.087 167.389 124.156 169.861C122.195 172.143 121.832 174.646 123.07 177.369C124.465 179.87 127.729 181.863 132.861 183.347C137.613 183.724 142.38 183.609 147.162 183.003C152.134 182.366 157.011 181.745 161.793 181.139C166.766 180.502 171.595 180.181 176.283 180.177C181.161 180.142 185.786 180.93 190.158 182.542C200.17 186.335 208.425 191.887 214.924 199.198C221.581 206.288 226.164 214.408 228.673 223.56C231.341 232.49 231.95 241.96 230.501 251.969C229.02 261.789 225.306 271.104 219.359 279.914Z" fill="url(#paint0_linear_7204_13688)"/>
</g>
<path d="M220.359 279.914C213.81 289.801 205.645 298.201 195.863 305.114C186.24 311.805 175.887 317.055 164.804 320.864C153.944 324.832 142.733 327.296 131.173 328.255C119.835 329.373 109.066 329.223 98.8659 327.805C88.666 326.388 79.4311 323.735 71.1613 319.846C63.0497 315.735 56.7268 310.64 52.1927 304.562C47.8486 298.453 45.7842 291.376 45.9996 283.33C46.1831 275.095 49.5332 265.939 56.05 255.862C58.201 252.376 62.3167 250.124 68.3972 249.105C74.6359 247.865 81.366 247.226 88.5874 247.189C95.8089 247.152 102.904 247.526 109.873 248.312C116.842 249.099 122.401 249.633 126.55 249.915C133.297 250.543 138.633 249.747 142.559 247.526C146.643 245.084 148.747 242.485 148.872 239.73C148.996 236.974 147.047 234.664 143.023 232.798C138.999 230.932 132.521 230.748 123.591 232.243C107.439 234.948 93.5977 234.532 82.0658 230.993C70.502 227.265 61.9612 221.175 56.4434 212.722C50.9255 204.27 48.6843 193.804 49.7196 181.323C50.9132 168.622 56.0015 154.681 64.9847 139.503C70.1723 130.82 77.2927 123.181 86.3461 116.586C95.3676 109.801 105.135 104.551 115.647 100.837C126.318 96.9009 137.18 94.691 148.234 94.2071C159.446 93.5014 169.82 94.7918 179.356 98.0783C186.611 100.575 192.284 104.704 196.374 110.465C200.623 116.004 203.082 121.941 203.753 128.275C204.613 134.578 203.604 140.802 200.727 146.949C197.818 152.906 192.928 157.534 186.057 160.834C183.524 162.039 180.912 162.77 178.22 163.025C175.496 163.091 172.661 163.077 169.715 162.985C166.928 162.67 164.14 162.356 161.353 162.041C158.565 161.727 155.794 161.507 153.038 161.382C145.975 161.198 140.053 161.995 135.271 163.772C130.458 165.36 127.087 167.389 125.156 169.861C123.195 172.143 122.832 174.646 124.07 177.369C125.465 179.87 128.729 181.863 133.861 183.347C138.613 183.724 143.38 183.609 148.162 183.003C153.134 182.366 158.011 181.745 162.793 181.139C167.766 180.502 172.595 180.181 177.283 180.177C182.161 180.142 186.786 180.93 191.158 182.542C201.17 186.335 209.425 191.887 215.924 199.198C222.581 206.288 227.164 214.408 229.673 223.56C232.341 232.49 232.95 241.96 231.501 251.969C230.02 261.789 226.306 271.104 220.359 279.914Z" fill="url(#paint1_linear_7204_13688)"/>
<g filter="url(#filter1_f_7204_13688)">
<path d="M329.121 304.414C329.814 310.876 329.032 316.606 326.777 321.604C324.521 326.602 321.28 330.821 317.054 334.261C313.019 337.72 308.211 340.229 302.628 341.787C297.218 343.556 291.628 344.242 285.858 343.844C280.069 343.637 274.398 342.281 268.845 339.775C263.272 337.46 258.316 333.853 253.977 328.953C251.377 325.975 249.166 321.1 247.343 314.329C245.539 307.365 244.062 300.048 242.912 292.377C241.782 284.514 240.92 276.872 240.325 269.452C239.73 262.031 239.352 256.279 239.19 252.195C238.851 242.283 238.838 232.017 239.153 221.398C239.467 210.778 240.529 200.428 242.337 190.349C244.165 180.079 246.817 170.279 250.291 160.952C253.977 151.453 259.031 142.772 265.454 134.909C271.857 127.238 279.464 121.046 288.276 116.333C297.278 111.64 306.805 108.453 316.854 106.772C327.115 104.92 337.622 104.448 348.374 105.357C359.127 106.266 369.358 108.478 379.069 111.991C388.971 115.525 397.959 120.417 406.033 126.668C414.319 132.746 421.029 140.02 426.165 148.487C433.114 160.045 437.033 171.874 437.922 183.973C439.003 196.091 437.728 207.581 434.096 218.441C430.465 229.302 424.794 239.275 417.083 248.362C409.393 257.257 400.422 264.471 390.171 270.004C380.131 275.366 369.042 278.683 356.903 279.956C344.785 281.037 332.386 279.184 319.707 274.398C321.939 279.081 323.853 284.022 325.45 289.221C327.258 294.249 328.482 299.313 329.121 304.414ZM315.063 189.383C313.417 195.993 313.643 201.342 315.742 205.431C318.032 209.539 321.246 212.193 325.383 213.392C329.732 214.419 334.516 214.038 339.735 212.249C345.146 210.48 350.139 207.119 354.714 202.165C358.193 198.455 360.063 194.386 360.324 189.958C360.795 185.359 360.058 181.216 358.112 177.53C356.166 173.845 353.259 171.029 349.392 169.083C345.736 166.965 341.423 166.522 336.455 167.756C331.275 169.161 326.744 171.795 322.862 175.658C319.172 179.54 316.572 184.115 315.063 189.383Z" fill="url(#paint2_linear_7204_13688)"/>
</g>
<path d="M329.121 304.414C329.814 310.876 329.032 316.606 326.777 321.604C324.521 326.602 321.28 330.821 317.054 334.261C313.019 337.72 308.211 340.229 302.628 341.787C297.218 343.556 291.628 344.242 285.858 343.844C280.069 343.637 274.398 342.281 268.845 339.775C263.272 337.46 258.316 333.853 253.977 328.953C251.377 325.975 249.166 321.1 247.343 314.329C245.539 307.365 244.062 300.048 242.912 292.377C241.782 284.514 240.92 276.872 240.325 269.452C239.73 262.031 239.352 256.279 239.19 252.195C238.851 242.283 238.838 232.017 239.153 221.398C239.467 210.778 240.529 200.428 242.337 190.349C244.165 180.079 246.817 170.279 250.291 160.952C253.977 151.453 259.031 142.772 265.454 134.909C271.857 127.238 279.464 121.046 288.276 116.333C297.278 111.64 306.805 108.453 316.854 106.772C327.115 104.92 337.622 104.448 348.374 105.357C359.127 106.266 369.358 108.478 379.069 111.991C388.971 115.525 397.959 120.417 406.033 126.668C414.319 132.746 421.029 140.02 426.165 148.487C433.114 160.045 437.033 171.874 437.922 183.973C439.003 196.091 437.728 207.581 434.096 218.441C430.465 229.302 424.794 239.275 417.083 248.362C409.393 257.257 400.422 264.471 390.171 270.004C380.131 275.366 369.042 278.683 356.903 279.956C344.785 281.037 332.386 279.184 319.707 274.398C321.939 279.081 323.853 284.022 325.45 289.221C327.258 294.249 328.482 299.313 329.121 304.414ZM315.063 189.383C313.417 195.993 313.643 201.342 315.742 205.431C318.032 209.539 321.246 212.193 325.383 213.392C329.732 214.419 334.516 214.038 339.735 212.249C345.146 210.48 350.139 207.119 354.714 202.165C358.193 198.455 360.063 194.386 360.324 189.958C360.795 185.359 360.058 181.216 358.112 177.53C356.166 173.845 353.259 171.029 349.392 169.083C345.736 166.965 341.423 166.522 336.455 167.756C331.275 169.161 326.744 171.795 322.862 175.658C319.172 179.54 316.572 184.115 315.063 189.383Z" fill="url(#paint3_linear_7204_13688)"/>
<g filter="url(#filter2_f_7204_13688)">
<path d="M803.43 281.439C799.199 289.2 793.594 295.692 786.613 300.917C779.633 306.141 771.768 310.07 763.02 312.704C754.461 315.366 745.401 316.787 735.837 316.968C726.273 317.149 716.697 316.063 707.109 313.71C697.493 311.548 688.26 308.078 679.41 303.301C670.587 298.333 662.624 292.127 655.52 284.681C649.423 278.354 644.635 271.047 641.156 262.76C637.704 254.283 635.275 245.467 633.867 236.31C632.46 227.154 631.938 217.931 632.301 208.64C632.883 199.186 634.173 190.223 636.17 181.752C639.29 168.186 644.452 155.985 651.656 145.148C658.86 134.311 667.466 125.233 677.472 117.914C687.479 110.595 698.383 105.157 710.185 101.6C722.014 97.8515 734.017 96.2698 746.196 96.8543C758.374 97.4388 770.224 100.312 781.744 105.473C793.291 110.444 803.882 118.002 813.517 128.147C818.934 133.792 822.252 139.817 823.471 146.221C824.909 152.462 824.835 158.388 823.249 164C821.663 169.611 818.892 174.662 814.937 179.154C811.009 183.455 806.374 186.583 801.032 188.54C795.689 190.496 789.981 190.94 783.906 189.871C777.858 188.612 772.018 185.241 766.383 179.758C762.463 175.885 758.285 172.462 753.846 169.487C749.599 166.541 744.928 164.506 739.834 163.384C733.024 162.014 726.892 163.371 721.439 167.452C716.204 171.37 712.152 176.529 709.285 182.929C706.636 189.166 705.58 195.827 706.118 202.911C706.846 210.023 709.783 215.993 714.927 220.821C718.194 223.822 721.897 225.814 726.038 226.799C730.206 227.594 734.551 227.83 739.075 227.507C743.816 227.022 748.598 226.25 753.422 225.192C758.437 224.162 763.328 223.309 768.097 222.632C773.056 221.984 777.852 221.798 782.484 222.075C787.143 222.161 791.474 223.174 795.477 225.112C801.278 228.088 805.524 231.716 808.217 235.997C810.938 240.086 812.432 244.584 812.699 249.488C813.185 254.23 812.54 259.392 810.763 264.976C809.014 270.369 806.569 275.857 803.43 281.439Z" fill="url(#paint4_linear_7204_13688)"/>
</g>
<path d="M803.43 281.439C799.199 289.2 793.594 295.692 786.613 300.917C779.633 306.141 771.768 310.07 763.02 312.704C754.461 315.366 745.401 316.787 735.837 316.968C726.273 317.149 716.697 316.063 707.109 313.71C697.493 311.548 688.26 308.078 679.41 303.301C670.587 298.333 662.624 292.127 655.52 284.681C649.423 278.354 644.635 271.047 641.156 262.76C637.704 254.283 635.275 245.467 633.867 236.31C632.46 227.154 631.938 217.931 632.301 208.64C632.883 199.186 634.173 190.223 636.17 181.752C639.29 168.186 644.452 155.985 651.656 145.148C658.86 134.311 667.466 125.233 677.472 117.914C687.479 110.595 698.383 105.157 710.185 101.6C722.014 97.8515 734.017 96.2698 746.196 96.8543C758.374 97.4388 770.224 100.312 781.744 105.473C793.291 110.444 803.882 118.002 813.517 128.147C818.934 133.792 822.252 139.817 823.471 146.221C824.909 152.462 824.835 158.388 823.249 164C821.663 169.611 818.892 174.662 814.937 179.154C811.009 183.455 806.374 186.583 801.032 188.54C795.689 190.496 789.981 190.94 783.906 189.871C777.858 188.612 772.018 185.241 766.383 179.758C762.463 175.885 758.285 172.462 753.846 169.487C749.599 166.541 744.928 164.506 739.834 163.384C733.024 162.014 726.892 163.371 721.439 167.452C716.204 171.37 712.152 176.529 709.285 182.929C706.636 189.166 705.58 195.827 706.118 202.911C706.846 210.023 709.783 215.993 714.927 220.821C718.194 223.822 721.897 225.814 726.038 226.799C730.206 227.594 734.551 227.83 739.075 227.507C743.816 227.022 748.598 226.25 753.422 225.192C758.437 224.162 763.328 223.309 768.097 222.632C773.056 221.984 777.852 221.798 782.484 222.075C787.143 222.161 791.474 223.174 795.477 225.112C801.278 228.088 805.524 231.716 808.217 235.997C810.938 240.086 812.432 244.584 812.699 249.488C813.185 254.23 812.54 259.392 810.763 264.976C809.014 270.369 806.569 275.857 803.43 281.439Z" fill="url(#paint5_linear_7204_13688)"/>
<g filter="url(#filter3_f_7204_13688)">
<path d="M959.683 328.919C952.806 332.332 944.602 335.366 935.072 338.022C925.571 340.868 915.922 342.763 906.125 343.706C896.547 344.809 887.253 344.601 878.241 343.082C869.45 341.723 862.295 338.353 856.776 332.974C851.977 328.458 847.892 322.27 844.522 314.411C841.342 306.523 838.82 297.849 836.955 288.39C835.09 278.932 833.722 268.908 832.851 258.319C832.14 247.511 831.774 237.038 831.754 226.902C831.894 216.546 832.328 206.826 833.057 197.743C833.785 188.66 834.692 180.719 835.776 173.92C836.384 170.315 836.882 166.631 837.27 162.865C837.628 158.91 838.111 155.13 838.719 151.525C839.487 147.7 840.491 144.131 841.729 140.819C842.938 137.315 844.697 134.214 847.005 131.514C849.505 128.784 853.616 126.388 859.339 124.326C865.223 122.043 871.561 120.178 878.355 118.728C885.309 117.059 892.023 115.72 898.495 114.71C904.967 113.701 910.012 112.914 913.628 112.35C921.433 111.133 929.253 110.012 937.087 108.985C945.112 107.928 952.753 108.784 960.009 111.553C965.184 113.476 969.073 117.159 971.677 122.603C974.471 128.017 975.962 133.829 976.151 140.039C976.529 146.22 975.597 152.117 973.352 157.732C971.108 163.347 967.549 167.411 962.677 169.926C959.97 171.323 955.731 172.277 949.961 172.786C944.161 173.106 937.966 173.389 931.375 173.637C924.974 173.855 918.874 174.124 913.074 174.444C907.244 174.573 902.946 175.145 900.18 176.162C897.223 177.208 895.528 178.837 895.093 181.05C894.848 183.233 895.079 185.342 895.787 187.376C896.744 189.762 898.221 192.359 900.219 195.167C902.313 194.841 905.344 194.27 909.312 193.457C913.28 192.643 917.453 191.895 921.831 191.212C926.18 190.339 930.272 189.701 934.109 189.297C938.107 188.674 941.197 188.485 943.38 188.729C946.574 189.206 949.2 191.039 951.257 194.228C953.285 197.227 954.625 200.82 955.278 205.008C956.121 209.166 956.174 213.253 955.435 217.268C954.696 221.283 953.128 224.355 950.73 226.484C949.004 227.923 945.902 229.284 941.422 230.567C937.133 231.821 932.433 232.944 927.323 233.936C922.374 234.708 917.52 235.465 912.76 236.207C908.192 236.919 904.765 237.453 902.481 237.81C900.577 238.106 899.343 239.566 898.777 242.19C898.181 244.622 898.106 247.266 898.551 250.122C899.157 252.757 900.114 255.143 901.422 257.279C902.92 259.385 904.621 260.29 906.525 259.993C911.064 259.09 916.656 257.438 923.301 255.037C929.917 252.445 936.672 250.125 943.567 248.074C950.432 245.834 956.94 244.429 963.091 243.86C969.433 243.261 974.298 244.452 977.688 247.434C980.637 250.094 983.26 253.779 985.554 258.491C988.01 262.983 989.938 267.85 991.341 273.091C992.904 278.112 993.8 283.237 994.031 288.465C994.231 293.504 993.742 297.87 992.563 301.564C991.355 305.067 989.596 308.168 987.287 310.868C984.948 313.378 982.199 315.756 979.04 318.004C976.071 320.222 972.867 322.184 969.429 323.89C966.21 325.757 962.961 327.433 959.683 328.919Z" fill="url(#paint6_linear_7204_13688)"/>
</g>
<path d="M959.683 328.919C952.806 332.332 944.602 335.366 935.072 338.022C925.571 340.868 915.922 342.763 906.125 343.706C896.547 344.809 887.253 344.601 878.241 343.082C869.45 341.723 862.295 338.353 856.776 332.974C851.977 328.458 847.892 322.27 844.522 314.411C841.342 306.523 838.82 297.849 836.955 288.39C835.09 278.932 833.722 268.908 832.851 258.319C832.14 247.511 831.774 237.038 831.754 226.902C831.894 216.546 832.328 206.826 833.057 197.743C833.785 188.66 834.692 180.719 835.776 173.92C836.384 170.315 836.882 166.631 837.27 162.865C837.628 158.91 838.111 155.13 838.719 151.525C839.487 147.7 840.491 144.131 841.729 140.819C842.938 137.315 844.697 134.214 847.005 131.514C849.505 128.784 853.616 126.388 859.339 124.326C865.223 122.043 871.561 120.178 878.355 118.728C885.309 117.059 892.023 115.72 898.495 114.71C904.967 113.701 910.012 112.914 913.628 112.35C921.433 111.133 929.253 110.012 937.087 108.985C945.112 107.928 952.753 108.784 960.009 111.553C965.184 113.476 969.073 117.159 971.677 122.603C974.471 128.017 975.962 133.829 976.151 140.039C976.529 146.22 975.597 152.117 973.352 157.732C971.108 163.347 967.549 167.411 962.677 169.926C959.97 171.323 955.731 172.277 949.961 172.786C944.161 173.106 937.966 173.389 931.375 173.637C924.974 173.855 918.874 174.124 913.074 174.444C907.244 174.573 902.946 175.145 900.18 176.162C897.223 177.208 895.528 178.837 895.093 181.05C894.848 183.233 895.079 185.342 895.787 187.376C896.744 189.762 898.221 192.359 900.219 195.167C902.313 194.841 905.344 194.27 909.312 193.457C913.28 192.643 917.453 191.895 921.831 191.212C926.18 190.339 930.272 189.701 934.109 189.297C938.107 188.674 941.197 188.485 943.38 188.729C946.574 189.206 949.2 191.039 951.257 194.228C953.285 197.227 954.625 200.82 955.278 205.008C956.121 209.166 956.174 213.253 955.435 217.268C954.696 221.283 953.128 224.355 950.73 226.484C949.004 227.923 945.902 229.284 941.422 230.567C937.133 231.821 932.433 232.944 927.323 233.936C922.374 234.708 917.52 235.465 912.76 236.207C908.192 236.919 904.765 237.453 902.481 237.81C900.577 238.106 899.343 239.566 898.777 242.19C898.181 244.622 898.106 247.266 898.551 250.122C899.157 252.757 900.114 255.143 901.422 257.279C902.92 259.385 904.621 260.29 906.525 259.993C911.064 259.09 916.656 257.438 923.301 255.037C929.917 252.445 936.672 250.125 943.567 248.074C950.432 245.834 956.94 244.429 963.091 243.86C969.433 243.261 974.298 244.452 977.688 247.434C980.637 250.094 983.26 253.779 985.554 258.491C988.01 262.983 989.938 267.85 991.341 273.091C992.904 278.112 993.8 283.237 994.031 288.465C994.231 293.504 993.742 297.87 992.563 301.564C991.355 305.067 989.596 308.168 987.287 310.868C984.948 313.378 982.199 315.756 979.04 318.004C976.071 320.222 972.867 322.184 969.429 323.89C966.21 325.757 962.961 327.433 959.683 328.919Z" fill="url(#paint7_linear_7204_13688)"/>
<defs>
<filter id="filter0_f_7204_13688" x="2.36426" y="70.1875" width="254.626" height="284.524" filterUnits="userSpaceOnUse" color-interpolation-filters="sRGB">
<feFlood flood-opacity="0" result="BackgroundImageFix"/>
<feBlend mode="normal" in="SourceGraphic" in2="BackgroundImageFix" result="shape"/>
<feGaussianBlur stdDeviation="6" result="effect1_foregroundBlur_7204_13688"/>
</filter>
<filter id="filter1_f_7204_13688" x="214.002" y="83.0742" width="246.446" height="287.468" filterUnits="userSpaceOnUse" color-interpolation-filters="sRGB">
<feFlood flood-opacity="0" result="BackgroundImageFix"/>
<feBlend mode="normal" in="SourceGraphic" in2="BackgroundImageFix" result="shape"/>
<feGaussianBlur stdDeviation="6" result="effect1_foregroundBlur_7204_13688"/>
</filter>
<filter id="filter2_f_7204_13688" x="605.657" y="69.1851" width="241.174" height="271.785" filterUnits="userSpaceOnUse" color-interpolation-filters="sRGB">
<feFlood flood-opacity="0" result="BackgroundImageFix"/>
<feBlend mode="normal" in="SourceGraphic" in2="BackgroundImageFix" result="shape"/>
<feGaussianBlur stdDeviation="6" result="effect1_foregroundBlur_7204_13688"/>
</filter>
<filter id="filter3_f_7204_13688" x="799.405" y="91.3115" width="219.364" height="274.557" filterUnits="userSpaceOnUse" color-interpolation-filters="sRGB">
<feFlood flood-opacity="0" result="BackgroundImageFix"/>
<feBlend mode="normal" in="SourceGraphic" in2="BackgroundImageFix" result="shape"/>
<feGaussianBlur stdDeviation="6" result="effect1_foregroundBlur_7204_13688"/>
</filter>
<linearGradient id="paint0_linear_7204_13688" x1="104.904" y1="21.5694" x2="153.209" y2="309.991" gradientUnits="userSpaceOnUse">
<stop stop-color="#E4AFD1"/>
<stop offset="1" stop-color="#5E93DF"/>
</linearGradient>
<linearGradient id="paint1_linear_7204_13688" x1="105.904" y1="21.5694" x2="154.209" y2="309.991" gradientUnits="userSpaceOnUse">
<stop stop-color="#E4AFD1"/>
<stop offset="1" stop-color="#5E93DF"/>
</linearGradient>
<linearGradient id="paint2_linear_7204_13688" x1="358.646" y1="30.852" x2="328.809" y2="321.765" gradientUnits="userSpaceOnUse">
<stop stop-color="#E4AFD1"/>
<stop offset="1" stop-color="#5E93DF"/>
</linearGradient>
<linearGradient id="paint3_linear_7204_13688" x1="358.646" y1="30.852" x2="328.809" y2="321.765" gradientUnits="userSpaceOnUse">
<stop stop-color="#E4AFD1"/>
<stop offset="1" stop-color="#5E93DF"/>
</linearGradient>
<linearGradient id="paint4_linear_7204_13688" x1="762.932" y1="15.149" x2="721.281" y2="304.607" gradientUnits="userSpaceOnUse">
<stop stop-color="#E4AFD1"/>
<stop offset="1" stop-color="#5E93DF"/>
</linearGradient>
<linearGradient id="paint5_linear_7204_13688" x1="762.932" y1="15.149" x2="721.281" y2="304.607" gradientUnits="userSpaceOnUse">
<stop stop-color="#E4AFD1"/>
<stop offset="1" stop-color="#5E93DF"/>
</linearGradient>
<linearGradient id="paint6_linear_7204_13688" x1="898.095" y1="31.388" x2="943.151" y2="320.335" gradientUnits="userSpaceOnUse">
<stop stop-color="#E4AFD1"/>
<stop offset="1" stop-color="#5E93DF"/>
</linearGradient>
<linearGradient id="paint7_linear_7204_13688" x1="898.095" y1="31.388" x2="943.151" y2="320.335" gradientUnits="userSpaceOnUse">
<stop stop-color="#E4AFD1"/>
<stop offset="1" stop-color="#5E93DF"/>
</linearGradient>
</defs>
</svg>
