<svg id="Layer_1" data-name="Layer 1" xmlns="http://www.w3.org/2000/svg" viewBox="0 0 504 64.01"><defs><style>.cls-1{fill:#081d4d;}</style></defs><path class="cls-1" d="M0,36.19H27.13V63.36h13V23.18H0ZM0,0V13H50.31V63.36h13V0ZM0,63.36H16.87V46.44H0Z"/><path class="cls-1" d="M394.58,45c0-12.91-2.24-17.59-10.46-17.59a14.43,14.43,0,0,0-12.43,7.19h-.26L370,28h-9.41v2.68l5,1.24V59.43l-5,1.24v2.69h15.76V60.67L372,59.43V42c0-6.75,4.95-9.94,9.49-9.94,6.36,0,6.8,4.86,6.8,12.82V59.43l-4.38,1.24v2.69h15.76V60.67l-5-1.24Zm24,14.65c-6.33,0-10.27-4.32-10.27-14.52,0-11.36,4.34-14.39,10.27-14.39q5.36,0,7.26,3.6a4.62,4.62,0,0,0-3.28,4.45c0,2.89,1.92,3.86,4,3.86q4.05,0,4.05-5c0-6.9-5.6-10.2-12.43-10.2-7.33,0-16.74,4.35-16.74,18.7C401.45,58.89,408.61,64,417,64a15.72,15.72,0,0,0,14-7.85l-2-1.57a13.71,13.71,0,0,1-10.46,5M317.61,45c0-12.91-2.25-17.59-10.46-17.59a14.41,14.41,0,0,0-12.43,7.19h-.26L293,28H283.6v2.68l5,1.24V59.43l-5,1.24v2.69h15.76V60.67L295,59.43V42c0-6.75,4.95-9.94,9.48-9.94,6.36,0,6.8,4.86,6.8,12.82V59.43l-4.38,1.24v2.69h15.76V60.67l-5-1.24Zm27.44,10.56a9.3,9.3,0,0,1-7.89,4.68c-2.74,0-4.84-1.77-4.84-5.89,0-6.26,5.74-7.54,13.8-9.28.56,4.46.33,8-1.07,10.49m8.1,3.4a15.86,15.86,0,0,1-.42-4.48V45q0-10.33-4.06-14.39c-2.13-2.14-5.06-3.2-8.76-3.2-5,0-12.56,2.41-12.56,8.5,0,2.24,1.24,4,3.6,4a3.49,3.49,0,0,0,3.73-3.54,4.91,4.91,0,0,0-1.77-3.66c.9-1.74,3.09-2.42,5.3-2.42,4.51,0,7.42,2.1,8,12.82-7.88,1.44-20.6,3.05-20.6,12.62,0,4.39,2.42,8.31,8.83,8.31s10.27-3.64,12.55-7.13h.26c0,4.87.43,7.13,3.4,7.13A21.46,21.46,0,0,0,358,62.12v-2H355a1.78,1.78,0,0,1-1.87-1.21M445.27,28H433.89v2.68l5,1.24V59.43l-5,1.24v2.69h16.42V60.67l-5-1.24ZM499,59.43V12.34H487.58V15l5,1.25V59.43l-5,1.24v2.69H504V60.67Zm-26.38-3.89a9.3,9.3,0,0,1-7.89,4.68c-2.74,0-4.84-1.77-4.84-5.89,0-6.26,5.74-7.54,13.8-9.28.56,4.46.33,8-1.07,10.49m8.1,3.4a15.86,15.86,0,0,1-.42-4.48V45q0-10.33-4.06-14.39c-2.13-2.14-5.06-3.2-8.76-3.2-5,0-12.56,2.41-12.56,8.5,0,2.24,1.24,4,3.6,4a3.49,3.49,0,0,0,3.73-3.54,4.91,4.91,0,0,0-1.77-3.66c.9-1.74,3.09-2.42,5.3-2.42,4.51,0,7.42,2.1,8,12.82-7.88,1.44-20.6,3.05-20.6,12.62,0,4.39,2.42,8.31,8.83,8.31s10.27-3.64,12.55-7.13h.26c0,4.87.43,7.13,3.4,7.13a21.46,21.46,0,0,0,7.33-1.89v-2h-2.94a1.78,1.78,0,0,1-1.87-1.21m-283,.49H179.94v-39l6.8-1.37V16.27H167.25v2.81l6.15,1.37V59.17l-6.15,1.37v2.82h36.3V48.12H200Zm73.64-37.87a4.12,4.12,0,0,0,3-1.07,4,4,0,0,0,1.11-3,3.83,3.83,0,0,0-4.12-4.12,3.92,3.92,0,0,0-3,1.11,4.11,4.11,0,0,0-1.09,3,3.74,3.74,0,0,0,4.06,4M117.68,59.43H99.89v-39l6.8-1.37V16.27H87.2v2.81l6.15,1.37V59.17L87.2,60.54v2.82h36.3V48.12h-3.6Zm31.13-18.38H140.7v-21h7.85c5.34,0,9.35,3.54,9.35,10.6,0,6.81-3.45,10.39-9.09,10.39m1.5-24.78H128.67v2.81l5.49,1.37V59.17l-5.49,1.38v2.81h18.24V60.55l-6.21-1.38V44.85h9.55c9.89,0,14.85-7.25,14.85-14.59,0-5.37-3.63-14-14.79-14m291.75,5.29a4.16,4.16,0,0,0,3-1.07,4,4,0,0,0,1.1-3,4.11,4.11,0,0,0-1.1-3,4.1,4.1,0,0,0-3-1.11,4,4,0,0,0-3,1.11,4.14,4.14,0,0,0-1.08,3,3.72,3.72,0,0,0,4.05,4m-218.7-2.48,6.15,1.37V59l-6.15,1.57v2.82h20.35V60.22L236.05,59V41.84H247l1.11,6.67h3.33V31.24h-3.33L247,37.92H236.05V20.06h18.51l2.09,10.2h3.54v-14H223.36Zm51.21,9H263.2v2.68l5,1.24V59.43l-5,1.24v2.69h16.41V60.67l-5-1.24Z"/></svg>